<svg aria-hidden="true" style="position: absolute; width: 0; height: 0; overflow: hidden;" version="1.1" xmlns="http://www.w3.org/2000/svg" xmlns:xlink="http://www.w3.org/1999/xlink">
<defs>
<symbol id="icon-account" viewBox="0 0 32 32">
<path fill="#fff" style="fill: var(--color1, #fff)" d="M16 5.333c2.946 0 5.333 2.388 5.333 5.333s-2.388 5.333-5.333 5.333v0c-2.946 0-5.333-2.388-5.333-5.333s2.388-5.333 5.333-5.333v0zM16 18.667c5.893 0 10.667 2.387 10.667 5.333v2.667h-21.333v-2.667c0-2.947 4.773-5.333 10.667-5.333z"></path>
</symbol>
<symbol id="icon-like" viewBox="0 0 32 32">
<path fill="#fff" style="fill: var(--color1, #fff)" d="M15.952 8.171c-4.894-7.564-14.809-3.442-14.809 4.798 0 6.187 13.589 15.868 14.809 17.127 1.23-1.259 14.144-10.939 14.144-17.127 0-8.178-9.237-12.363-14.144-4.798z"></path>
</symbol>
<symbol id="icon-logo" viewBox="0 0 133 32">
<path fill="#fff" style="fill: var(--color1, #fff)" d="M27.415 27.372c-3.095 3.084-6.884 4.628-11.364 4.628s-8.283-1.543-11.408-4.628c-3.095-3.116-4.643-6.906-4.643-11.372s1.548-8.242 4.643-11.328c3.124-3.114 6.927-4.672 11.408-4.672s8.269 1.557 11.364 4.672c3.125 3.086 4.687 6.862 4.687 11.328s-1.562 8.257-4.687 11.372zM8.225 23.934c2.122 2.086 4.731 3.129 7.826 3.129s5.689-1.043 7.783-3.129c2.122-2.116 3.183-4.761 3.183-7.934s-1.061-5.803-3.183-7.889c-2.094-2.116-4.687-3.174-7.783-3.174s-5.705 1.058-7.826 3.174c-2.093 2.087-3.14 4.716-3.14 7.89s1.046 5.818 3.14 7.934zM49.357 32c-4.805 0-8.122-1.881-9.95-5.642l4.378-2.556c1.002 2.174 2.874 3.262 5.616 3.262 1.769 0 3.124-0.426 4.068-1.278 0.973-0.882 1.459-2.116 1.459-3.703v-21.51h5.086v21.51c0 3.174-1.003 5.628-3.007 7.361-2.004 1.705-4.554 2.556-7.649 2.556zM79.178 32c-4.805 0-8.121-1.881-9.949-5.642l4.378-2.556c1.002 2.174 2.874 3.262 5.615 3.262 1.769 0 3.125-0.426 4.068-1.278 0.973-0.882 1.459-2.116 1.459-3.703v-21.51h5.085v21.51c0 3.174-1.002 5.628-3.007 7.361-2.004 1.705-4.554 2.556-7.65 2.556zM128.236 27.372c-3.095 3.085-6.883 4.628-11.364 4.628s-8.284-1.543-11.409-4.628c-3.095-3.115-4.642-6.906-4.642-11.372s1.548-8.242 4.642-11.328c3.125-3.114 6.928-4.672 11.409-4.672s8.269 1.557 11.364 4.672c3.125 3.086 4.687 6.862 4.687 11.328s-1.562 8.257-4.687 11.372zM109.046 23.934c2.122 2.086 4.731 3.129 7.826 3.129s5.689-1.043 7.782-3.129c2.122-2.116 3.184-4.761 3.184-7.934s-1.062-5.803-3.184-7.889c-2.093-2.116-4.687-3.174-7.782-3.174s-5.704 1.058-7.826 3.174c-2.093 2.086-3.14 4.716-3.14 7.89s1.047 5.818 3.14 7.934z"></path>
<path fill="#fff" style="fill: var(--color1, #fff)" d="M22.234 14.728l-0.003-0.032c-0.008-0.043-0.020-0.082-0.038-0.118l0.001 0.003-1.809-3.243s-0.231-0.319-0.286-0.319h-7.713l-2.32 3.452-0.027 0.032-0.004 0.015c-0.018 0.032-0.034 0.068-0.047 0.107l-0.001 0.004-0.009 0.031c-0.012 0.043-0.019 0.093-0.019 0.145 0 0.056 0.008 0.111 0.024 0.162l-0.001-0.004 0.010 0.034c0.015 0.043 0.033 0.080 0.055 0.114l-0.001-0.002 5.62 7.926c0.030 0.043 0.066 0.080 0.106 0.11l0.001 0.001 0.032 0.023c0.033 0.023 0.071 0.043 0.111 0.058l0.004 0.001 0.031 0.012c0.055 0.015 0.103 0.022 0.149 0.022 0.056-0.001 0.109-0.010 0.159-0.026l-0.004 0.001 0.038-0.015c0.042-0.017 0.079-0.038 0.112-0.062l-0.002 0.001 0.025-0.017c0.037-0.029 0.069-0.061 0.096-0.098l0.001-0.001 5.615-7.916c0.048-0.071 0.082-0.157 0.094-0.249l0-0.003 0.004-0.041 0.002-0.033-0.007-0.076zM19.223 14.518l0.799-1.61 0.799 1.61h-1.598zM18.744 15.471h1.897l-3.161 4.457 1.264-4.457zM18.275 14.035l-1.154-1.743h2.020l-0.865 1.743zM14.577 15.471h3.045l-1.522 5.367-1.522-5.367zM14.879 14.518l1.22-1.843 1.22 1.843h-2.439zM14.020 13.89l-0.529-1.599h1.588l-1.058 1.599zM14.719 19.929l-3.161-4.457h1.897l1.264 4.457zM12.575 12.919l0.529 1.599h-1.588l1.058-1.599zM122.953 14.728l-0.004-0.032c-0.007-0.043-0.020-0.082-0.037-0.118l0.001 0.003-1.81-3.243s-0.231-0.319-0.286-0.319h-7.713l-2.319 3.452-0.028 0.032-0.004 0.015c-0.018 0.032-0.034 0.068-0.047 0.107l-0.001 0.004-0.009 0.031c-0.012 0.043-0.019 0.093-0.019 0.145 0 0.056 0.008 0.111 0.024 0.162l-0.001-0.004 0.011 0.034c0.015 0.043 0.033 0.080 0.055 0.114l-0.001-0.002 5.619 7.926c0.030 0.043 0.066 0.080 0.106 0.11l0.001 0.001 0.033 0.023c0.033 0.023 0.070 0.043 0.11 0.058l0.004 0.001 0.032 0.012c0.044 0.014 0.096 0.022 0.149 0.022h0c0.056-0.001 0.109-0.010 0.159-0.026l-0.004 0.001 0.038-0.015c0.042-0.017 0.079-0.038 0.112-0.062l0.024-0.016c0.037-0.029 0.069-0.061 0.096-0.098l0.001-0.001 5.615-7.916c0.048-0.071 0.082-0.157 0.094-0.249l0-0.003 0.004-0.041 0.002-0.033-0.007-0.076zM119.942 14.518l0.799-1.61 0.799 1.61h-1.598zM119.463 15.471h1.897l-3.161 4.457 1.264-4.457zM118.994 14.035l-1.154-1.743h2.020l-0.865 1.743zM115.297 15.471h3.045l-1.523 5.367-1.522-5.367zM115.598 14.518l1.22-1.843 1.22 1.843h-2.44zM114.739 13.89l-0.529-1.599h1.588l-1.058 1.599zM115.439 19.929l-3.161-4.457h1.897l1.265 4.457zM113.295 12.919l0.529 1.599h-1.588l1.058-1.599z"></path>
</symbol>
<symbol id="icon-rectangle" viewBox="0 0 85 32">
<path d="M0 0h85.333v32h-85.333v-32z"></path>
</symbol>
<symbol id="icon-untitled" viewBox="0 0 32 32">
<path d="M28 25.333l-6.872-6.872c0.963-1.445 1.536-3.22 1.536-5.13 0-5.155-4.179-9.333-9.333-9.333s-9.333 4.179-9.333 9.333c0 5.155 4.179 9.333 9.333 9.333 1.91 0 3.686-0.574 5.164-1.558l-0.034 0.021 6.872 6.872 2.667-2.667zM6.667 13.333c0-3.676 2.991-6.667 6.667-6.667s6.667 2.991 6.667 6.667-2.991 6.667-6.667 6.667-6.667-2.991-6.667-6.667z"></path>
</symbol>
</defs>
</svg>
